<?xml version="1.0" encoding="UTF-8"?>
<svg xmlns="http://www.w3.org/2000/svg" xmlns:xlink="http://www.w3.org/1999/xlink" width="24px" height="21px" viewBox="0 0 23 21" version="1.1">
<path style=" stroke:none;fill-rule:nonzero;fill:rgb(0%,0%,0%);fill-opacity:1;" d="M 9.265625 9.730469 C 10.535156 9.105469 11.195312 8.164062 11.195312 6.695312 C 11.195312 3.796875 9.097656 3.09375 6.671875 3.09375 L 0 3.09375 L 0 17.628906 L 6.859375 17.628906 C 9.429688 17.628906 11.847656 16.359375 11.847656 13.40625 C 11.847656 11.582031 11.003906 10.234375 9.265625 9.730469 Z M 3.109375 5.574219 L 6.03125 5.574219 C 7.152344 5.574219 8.160156 5.898438 8.160156 7.234375 C 8.160156 8.46875 7.375 8.964844 6.265625 8.964844 L 3.109375 8.964844 Z M 6.4375 15.160156 L 3.109375 15.160156 L 3.109375 11.15625 L 6.5 11.15625 C 7.871094 11.15625 8.738281 11.742188 8.738281 13.230469 C 8.738281 14.699219 7.703125 15.160156 6.4375 15.160156 Z M 20.75 5.285156 L 15.015625 5.285156 L 15.015625 3.855469 L 20.75 3.855469 Z M 23 12.519531 C 23 9.40625 21.226562 6.808594 18.011719 6.808594 C 14.890625 6.808594 12.769531 9.21875 12.769531 12.378906 C 12.769531 15.65625 14.777344 17.902344 18.011719 17.902344 C 20.460938 17.902344 22.046875 16.769531 22.808594 14.363281 L 20.324219 14.363281 C 20.058594 15.261719 18.953125 15.738281 18.101562 15.738281 C 16.453125 15.738281 15.585938 14.746094 15.585938 13.058594 L 22.976562 13.058594 C 22.988281 12.886719 23 12.703125 23 12.519531 Z M 15.589844 11.238281 C 15.679688 9.855469 16.574219 8.992188 17.925781 8.992188 C 19.339844 8.992188 20.050781 9.84375 20.167969 11.238281 Z M 15.589844 11.238281 "/>
</svg>
