<svg xmlns="http://www.w3.org/2000/svg" xmlns:xlink="http://www.w3.org/1999/xlink" width="27px" height="24px" viewBox="0 0 27 24" version="1.1">
<path d="M 10.875 11.117188 C 12.367188 10.40625 13.144531 9.328125 13.144531 7.648438 C 13.144531 4.339844 10.679688 3.535156 7.832031 3.535156 L 0 3.535156 L 0 20.148438 L 8.054688 20.148438 C 11.070312 20.148438 13.90625 18.699219 13.90625 15.324219 C 13.90625 13.238281 12.917969 11.695312 10.875 11.117188 Z M 3.652344 6.371094 L 7.078125 6.371094 C 8.394531 6.371094 9.582031 6.742188 9.582031 8.269531 C 9.582031 9.679688 8.65625 10.246094 7.355469 10.246094 L 3.652344 10.246094 Z M 7.554688 17.324219 L 3.652344 17.324219 L 3.652344 12.75 L 7.632812 12.75 C 9.238281 12.75 10.257812 13.421875 10.257812 15.121094 C 10.257812 16.800781 9.042969 17.324219 7.554688 17.324219 Z M 24.359375 6.042969 L 17.625 6.042969 L 17.625 4.40625 L 24.359375 4.40625 Z M 27 14.304688 C 27 10.75 24.917969 7.78125 21.144531 7.78125 C 17.480469 7.78125 14.992188 10.539062 14.992188 14.148438 C 14.992188 17.890625 17.347656 20.460938 21.144531 20.460938 C 24.019531 20.460938 25.878906 19.167969 26.773438 16.414062 L 23.859375 16.414062 C 23.546875 17.441406 22.25 17.984375 21.25 17.984375 C 19.3125 17.984375 18.296875 16.851562 18.296875 14.925781 L 26.972656 14.925781 C 26.984375 14.726562 27 14.515625 27 14.304688 Z M 18.300781 12.84375 C 18.40625 11.265625 19.457031 10.273438 21.042969 10.273438 C 22.703125 10.273438 23.535156 11.25 23.675781 12.84375 Z M 18.300781 12.84375" fill=""/>
</svg>
