<svg width="30.092857" height="30.000000" viewBox="0 0 30.0929 30" fill="none" xmlns="http://www.w3.org/2000/svg" xmlns:xlink="http://www.w3.org/1999/xlink">
	<path id="“" d="M30.09 0.26L29.38 5.43C27.54 5.28 26.19 5.66 25.34 6.56C24.49 7.45 23.97 8.66 23.79 10.17C23.6 11.68 23.55 13.31 23.64 15.05L30.09 15.05L30.09 30L17.98 30L17.98 12.22C17.98 7.88 19.07 4.62 21.24 2.45C23.46 0.28 26.41 -0.45 30.09 0.26ZM12.1 0.26L11.39 5.43C9.55 5.28 8.21 5.66 7.36 6.56C6.51 7.45 5.99 8.66 5.8 10.17C5.61 11.68 5.57 13.31 5.66 15.05L12.1 15.05L12.1 30L0 30L0 12.22C0 7.88 1.08 4.62 3.25 2.45C5.47 0.28 8.42 -0.45 12.1 0.26Z" fill="#373941" fill-opacity="1.000000" fill-rule="nonzero"/>
</svg>
