<svg width="16" height="16" viewBox="0 0 16 16" fill="none" xmlns="http://www.w3.org/2000/svg">
<path d="M10.6466 8.01998C10.6471 7.93224 10.6303 7.84527 10.5971 7.76404C10.5639 7.68282 10.5151 7.60894 10.4533 7.54665L6.45327 3.54665C6.32774 3.42111 6.15748 3.35059 5.97994 3.35059C5.80241 3.35059 5.63214 3.42111 5.50661 3.54665C5.38107 3.67218 5.31055 3.84245 5.31055 4.01998C5.31055 4.19751 5.38107 4.36778 5.50661 4.49331L9.03994 8.01998L5.51327 11.5466C5.40406 11.6742 5.34699 11.8382 5.35347 12.006C5.35995 12.1738 5.4295 12.333 5.54823 12.4517C5.66696 12.5704 5.82612 12.64 5.99391 12.6465C6.16169 12.6529 6.32574 12.5959 6.45327 12.4866L10.4533 8.48665C10.5764 8.36247 10.6459 8.19487 10.6466 8.01998Z" fill="#232d55"/>
</svg>
