<svg width="32.000000" height="32.000000" viewBox="0 0 32 32" fill="none" xmlns="http://www.w3.org/2000/svg" xmlns:xlink="http://www.w3.org/1999/xlink">
	<desc>
			Created with Pixso.
	</desc>
	<defs/>
	<path id="Vector" d="M18.28 15.88L23 18.86L23 12.77L18.28 15.88Z" fill="#5D5FEF" fill-opacity="1.000000" fill-rule="nonzero"/>
	<path id="Vector" d="M9 12.77L9 18.86L13.71 15.88L9 12.77Z" fill="#5D5FEF" fill-opacity="1.000000" fill-rule="nonzero"/>
	<path id="Vector" d="M22.12 11L9.87 11C9.43 11 9.09 11.32 9.02 11.74L16 16.33L22.97 11.74C22.9 11.32 22.56 11 22.12 11Z" fill="#5D5FEF" fill-opacity="1.000000" fill-rule="nonzero"/>
	<path id="Vector" d="M17.47 16.41L16.24 17.22C16.16 17.27 16.08 17.3 16 17.3C15.91 17.3 15.83 17.27 15.75 17.22L14.52 16.41L9.02 19.88C9.09 20.3 9.44 20.62 9.87 20.62L22.12 20.62C22.55 20.62 22.9 20.3 22.97 19.88L17.47 16.41Z" fill="#5D5FEF" fill-opacity="1.000000" fill-rule="nonzero"/>
	<rect id="Frame 157" rx="15.500000" width="31.000000" height="31.000000" transform="translate(0.500000 0.500000)" stroke="#5D5FEF" stroke-opacity="1.000000" stroke-width="1.000000"/>
</svg>
