<svg width="10" height="10" viewBox="0 0 10 10" fill="none" xmlns="http://www.w3.org/2000/svg">

<path d="M6.1376 7.9292C6.1376 8.60299 5.744 9.14908 5.07021 9.14908H2.55421C1.88042 9.14908 1.48682 8.60299 1.48682 7.9292" stroke="#5d98d8" stroke-width="0.409939" stroke-miterlimit="10" stroke-linecap="round"/>
<path d="M6.40428 6.40442C6.74108 6.40442 7.01422 6.74579 7.01422 7.16684C7.01422 7.58789 6.74108 7.92927 6.40428 7.92927H1.2198C0.883001 7.92927 0.609863 7.58789 0.609863 7.16684C0.609863 6.74579 0.883001 6.40442 1.2198 6.40442" stroke="#5d98d8" stroke-width="0.409939" stroke-miterlimit="10" stroke-linecap="round"/>
<path d="M6.55677 6.40441H3.41768C3.37729 6.40443 3.33856 6.42047 3.30999 6.44901L2.79859 6.96041C2.79151 6.9675 2.7831 6.97312 2.77385 6.97696C2.76459 6.98079 2.75467 6.98277 2.74465 6.98277C2.73463 6.98277 2.72471 6.98079 2.71545 6.97696C2.7062 6.97312 2.69779 6.9675 2.69071 6.96041L2.17931 6.44901C2.15074 6.42047 2.11201 6.40443 2.07162 6.40441H1.06732C0.945993 6.40441 0.829638 6.35621 0.743848 6.27042C0.658059 6.18464 0.609863 6.06828 0.609863 5.94696V5.94696C0.609863 5.82563 0.658059 5.70928 0.743848 5.62349C0.829638 5.5377 0.945993 5.4895 1.06732 5.4895H6.55677C6.67809 5.4895 6.79445 5.5377 6.88024 5.62349C6.96602 5.70928 7.01422 5.82563 7.01422 5.94696C7.01422 6.06828 6.96602 6.18464 6.88024 6.27042C6.79445 6.35621 6.67809 6.40441 6.55677 6.40441Z" stroke="#5d98d8" stroke-width="0.409939" stroke-miterlimit="10" stroke-linecap="round"/>
<path d="M1.21973 5.26076V5.25656C1.21973 4.20823 2.07745 3.65967 3.12579 3.65967H4.49815C5.54648 3.65967 6.40421 4.21243 6.40421 5.26076V5.25656" stroke="#5d98d8" stroke-width="0.409939" stroke-miterlimit="10" stroke-linecap="round"/>
<path d="M4.59375 2.13489L4.73556 3.35419" stroke="#5d98d8" stroke-width="0.409939" stroke-miterlimit="10" stroke-linecap="round"/>
<path d="M4.87939 9.14918H7.53472C7.6886 9.14918 7.83679 9.09102 7.94959 8.98635C8.06239 8.88168 8.13146 8.73825 8.14295 8.5848L8.82494 2.13489" stroke="#5d98d8" stroke-width="0.409939" stroke-miterlimit="10" stroke-linecap="round"/>
<path d="M7.01416 2.13483L7.31913 0.914955L8.21498 0.609985" stroke="#5d98d8" stroke-width="0.409939" stroke-linecap="round" stroke-linejoin="round"/>
<path d="M4.26953 2.13489H9.14904" stroke="#5d98d8" stroke-width="0.409939" stroke-miterlimit="10" stroke-linecap="round"/>

</svg>
