<?xml version="1.0" encoding="UTF-8"?>
<svg xmlns="http://www.w3.org/2000/svg" xmlns:xlink="http://www.w3.org/1999/xlink" width="24px" height="24px" viewBox="0 0 24 24" version="1.1">
<path style=" stroke:none;fill-rule:nonzero;fill:rgb(94.901961%,96.078432%,97.647059%);fill-opacity:1;" d="M 12 0 C 5.378906 0 0 5.378906 0 12 C 0 18.621094 5.378906 24 12 24 C 18.621094 24 24 18.621094 24 12 C 24 5.378906 18.621094 0 12 0 Z M 12 21.066406 C 6.976562 21.066406 2.890625 17.023438 2.890625 12 C 2.894531 9.585938 3.855469 7.269531 5.5625 5.5625 C 7.269531 3.855469 9.585938 2.894531 12 2.890625 C 14.414062 2.894531 16.730469 3.855469 18.4375 5.5625 C 20.144531 7.269531 21.105469 9.585938 21.109375 12 C 21.066406 17.023438 17.023438 21.066406 12 21.066406 Z M 12 21.066406 "/>
<path style=" stroke:none;fill-rule:nonzero;fill:rgb(97.647059%,78.431374%,27.450982%);fill-opacity:1;" d="M 10.535156 13.734375 C 11.378906 14.488281 12.621094 14.488281 13.421875 13.734375 L 13.421875 10.265625 C 12.578125 9.511719 11.332031 9.511719 10.535156 10.265625 Z M 12 5.824219 C 10.355469 5.824219 8.800781 6.488281 7.644531 7.644531 L 9.6875 9.6875 C 9.992188 9.382812 10.351562 9.140625 10.746094 8.972656 C 11.144531 8.808594 11.570312 8.722656 12 8.722656 C 12.429688 8.722656 12.855469 8.808594 13.253906 8.972656 C 13.648438 9.140625 14.007812 9.382812 14.3125 9.6875 L 16.355469 7.644531 C 15.199219 6.488281 13.644531 5.824219 12 5.824219 Z M 12 5.824219 "/>
<path style=" stroke:none;fill-rule:nonzero;fill:rgb(97.647059%,78.431374%,27.450982%);fill-opacity:1;" d="M 14.3125 14.3125 C 14.007812 14.617188 13.648438 14.859375 13.253906 15.027344 C 12.855469 15.191406 12.429688 15.277344 12 15.277344 C 11.570312 15.277344 11.144531 15.191406 10.746094 15.027344 C 10.351562 14.859375 9.992188 14.617188 9.6875 14.3125 L 7.644531 16.355469 C 10.042969 18.753906 13.957031 18.753906 16.355469 16.355469 Z M 11.996094 24 C 12.085938 22.578125 11.242188 21.289062 9.863281 20.84375 C 6.308594 19.957031 3.640625 17.066406 3.0625 13.46875 L 9.109375 13.46875 C 8.621094 12.535156 8.621094 11.46875 9.109375 10.578125 L 3.0625 10.578125 C 3.863281 5.601562 8.488281 2.265625 13.421875 3.023438 C 14.585938 3.199219 15.703125 3.609375 16.707031 4.222656 C 17.953125 4.976562 19.597656 4.667969 20.488281 3.511719 C 15.820312 -1.15625 8.21875 -1.15625 3.507812 3.511719 C -1.203125 8.179688 -1.203125 15.777344 3.507812 20.488281 C 5.777344 22.710938 8.796875 24 11.996094 24 Z M 11.996094 24 "/>
</svg>
