<svg width="130" height="75" viewBox="0 0 130 75" fill="none" xmlns="http://www.w3.org/2000/svg">
<g clip-path="url(#clip0_8028_86)">
<path d="M15.9239 2.24C17.7639 2.24 18.7639 2.65333 18.9239 3.48L21.6439 15.76L24.4039 32.12C24.4572 32.3867 24.4839 32.64 24.4839 32.88C24.4839 33.0933 24.4172 33.2667 24.2839 33.4C24.1506 33.56 23.6972 33.64 22.9239 33.64C20.5506 33.64 19.2839 33.1333 19.1239 32.12L17.7239 23.88H12.1239L10.8839 32.16C10.8039 32.72 10.6972 33.0933 10.5639 33.28C10.4572 33.4667 10.2972 33.5733 10.0839 33.6C9.87057 33.6267 9.52391 33.64 9.04391 33.64H7.92391C6.99057 33.64 6.40391 33.5867 6.16391 33.48C5.57724 33.2667 5.24391 33.0267 5.16391 32.76C5.13724 32.6267 5.12391 32.5067 5.12391 32.4C5.12391 32.2933 5.40391 30.5333 5.96391 27.12C6.52391 23.7067 7.20391 19.64 8.00391 14.92C8.83057 10.2 9.36391 7.10667 9.60391 5.64C9.87057 4.17333 10.0172 3.34667 10.0439 3.16C10.1506 2.54666 12.1106 2.24 15.9239 2.24ZM14.7239 7.48L12.8839 19.04H16.8439L14.7239 7.48ZM26.6464 32.424V14.952C28.2784 14.696 29.6944 14.568 30.8944 14.568C33.1184 14.568 34.6544 14.984 35.5024 15.816C36.3504 16.648 36.7744 18.024 36.7744 19.944C36.7744 22.632 36.0224 24.424 34.5184 25.32L37.5424 32.16C37.7184 32.56 37.8064 32.824 37.8064 32.952C37.8064 33.064 37.7904 33.136 37.7584 33.168C37.6944 33.312 37.4224 33.384 36.9424 33.384C35.3904 33.384 34.4784 33.08 34.2064 32.472L31.4704 26.136C31.0704 26.168 30.4704 26.184 29.6704 26.184V32.376C29.6704 32.824 29.6224 33.104 29.5264 33.216C29.4464 33.328 29.1744 33.384 28.7104 33.384C27.3344 33.384 26.6464 33.064 26.6464 32.424ZM30.0544 22.896C31.3344 22.896 32.1984 22.72 32.6464 22.368C33.0944 22 33.3184 21.184 33.3184 19.92C33.3184 19.152 33.1904 18.544 32.9344 18.096C32.6944 17.648 32.4224 17.424 32.1184 17.424C30.9824 17.424 30.2864 17.448 30.0304 17.496C29.7904 17.544 29.6704 17.704 29.6704 17.976V22.536C29.6704 22.744 29.7104 22.856 29.7904 22.872C29.8704 22.888 29.9584 22.896 30.0544 22.896ZM48.8038 30.168C49.2038 30.168 49.4038 30.424 49.4038 30.936C49.4038 31.448 49.3958 31.832 49.3798 32.088C49.3158 32.664 49.0598 32.992 48.6118 33.072C47.1878 33.28 46.1318 33.384 45.4438 33.384C43.0598 33.384 41.4198 32.712 40.5238 31.368C39.6278 30.024 39.1798 27.6 39.1798 24.096C39.1798 21.536 39.3718 19.584 39.7558 18.24C40.1558 16.88 40.7878 15.928 41.6518 15.384C42.5318 14.84 43.8358 14.568 45.5638 14.568C47.3078 14.568 48.5798 14.84 49.3798 15.384C49.5398 15.496 49.6198 15.632 49.6198 15.792C49.6198 15.952 49.5398 16.256 49.3798 16.704C49.2358 17.136 49.0918 17.448 48.9478 17.64C48.8198 17.816 48.6838 17.904 48.5398 17.904C48.3958 17.904 48.2838 17.896 48.2038 17.88C47.0038 17.64 45.9638 17.52 45.0838 17.52C44.2198 17.52 43.6518 18 43.3798 18.96C43.1238 19.92 42.9958 21.48 42.9958 23.64C42.9958 25.784 43.0518 27.28 43.1638 28.128C43.2758 28.976 43.4838 29.568 43.7878 29.904C44.0918 30.24 44.5718 30.408 45.2278 30.408C45.8998 30.408 46.6518 30.368 47.4838 30.288C48.3318 30.208 48.7718 30.168 48.8038 30.168ZM58.645 15.384C58.645 15.048 58.717 14.832 58.861 14.736C59.021 14.624 59.341 14.568 59.821 14.568C60.973 14.568 61.557 14.864 61.573 15.456L62.029 22.656V32.496C62.029 32.768 62.021 32.952 62.005 33.048C61.941 33.272 61.629 33.384 61.069 33.384C59.453 33.384 58.645 33.096 58.645 32.52V25.56H54.709L54.733 32.496C54.733 32.768 54.725 32.952 54.709 33.048C54.645 33.272 54.333 33.384 53.773 33.384C52.173 33.384 51.373 33.08 51.373 32.472V15.408C51.373 15.056 51.445 14.832 51.589 14.736C51.749 14.624 52.069 14.568 52.549 14.568C53.701 14.568 54.285 14.848 54.301 15.408L54.709 22.68H58.645V15.384ZM64.5058 30.096H65.3698V17.832H64.6498C64.3298 17.816 64.1138 17.712 64.0018 17.52C63.8898 17.296 63.8338 16.888 63.8338 16.296C63.8338 15.4 64.0978 14.952 64.6258 14.952H68.8738C69.5778 14.952 69.9298 15.2 69.9298 15.696C69.9298 17.12 69.6498 17.832 69.0898 17.832H68.4898L68.7298 22.632L68.7538 30.096H69.4738C70.0338 30.112 70.3138 30.368 70.3138 30.864C70.2818 32.288 69.8898 33 69.1378 33H64.6018C64.3138 32.984 64.1138 32.88 64.0018 32.688C63.8898 32.464 63.8338 32.048 63.8338 31.44C63.8338 30.544 64.0578 30.096 64.5058 30.096ZM77.2145 1.8H79.2145L84.3345 19.6C84.5745 20.4 84.7745 21.2 84.9345 22C85.1212 22.8 85.2812 23.5067 85.4145 24.12C85.5479 24.7067 85.6279 25.12 85.6545 25.36H85.8145C85.8679 25.12 85.9479 24.6933 86.0545 24.08C86.1879 23.4667 86.3345 22.76 86.4945 21.96C86.6812 21.16 86.8812 20.3733 87.0945 19.6L92.1345 1.8H94.1345L86.8945 27.28H84.5745L77.2145 1.8ZM71.2545 1.8H73.2945L82.2545 31.08H88.8145L97.7745 1.8H99.8145L90.2545 33H80.8145L71.2545 1.8ZM105.877 14.28H107.029V33H105.877V14.28ZM102.517 14.28H103.669V33H102.517V14.28ZM123.422 17.16V15.432H111.326V14.28H124.574V17.544L115.766 29.352H124.598V30.504H113.486L123.422 17.16ZM110.702 29.472L119.414 17.928H111.326V16.776H121.718L111.854 29.856V31.848H124.598V33H110.702V29.472Z" fill="#3A8E2F"/>
<path d="M6.03391 48H4.92596L8.1305 39.2727H9.22141L12.426 48H11.318L8.71005 40.6534H8.64187L6.03391 48ZM6.443 44.5909H10.9089V45.5284H6.443V44.5909ZM13.7853 48V39.2727H16.7342C17.416 39.2727 17.9757 39.3892 18.4132 39.6222C18.8507 39.8523 19.1745 40.169 19.3848 40.5724C19.595 40.9759 19.7001 41.4347 19.7001 41.9489C19.7001 42.4631 19.595 42.919 19.3848 43.3168C19.1745 43.7145 18.8521 44.027 18.4174 44.2543C17.9828 44.4787 17.4274 44.5909 16.7512 44.5909H14.3649V43.6364H16.7172C17.1831 43.6364 17.5581 43.5682 17.8422 43.4318C18.1291 43.2955 18.3365 43.1023 18.4643 42.8523C18.595 42.5994 18.6603 42.2983 18.6603 41.9489C18.6603 41.5994 18.595 41.294 18.4643 41.0327C18.3336 40.7713 18.1248 40.5696 17.8379 40.4276C17.551 40.2827 17.1717 40.2102 16.7001 40.2102H14.8422V48H13.7853ZM17.8933 44.0795L20.041 48H18.8137L16.7001 44.0795H17.8933ZM28.4838 42H27.427C27.3645 41.696 27.2551 41.429 27.0989 41.1989C26.9455 40.9688 26.758 40.7756 26.5364 40.6193C26.3176 40.4602 26.0748 40.3409 25.8077 40.2614C25.5407 40.1818 25.2623 40.142 24.9725 40.142C24.4441 40.142 23.9654 40.2756 23.5364 40.5426C23.1103 40.8097 22.7708 41.2031 22.5179 41.723C22.2679 42.2429 22.1429 42.8807 22.1429 43.6364C22.1429 44.392 22.2679 45.0298 22.5179 45.5497C22.7708 46.0696 23.1103 46.4631 23.5364 46.7301C23.9654 46.9972 24.4441 47.1307 24.9725 47.1307C25.2623 47.1307 25.5407 47.0909 25.8077 47.0114C26.0748 46.9318 26.3176 46.8139 26.5364 46.6577C26.758 46.4986 26.9455 46.304 27.0989 46.0739C27.2551 45.8409 27.3645 45.5739 27.427 45.2727H28.4838C28.4043 45.7187 28.2594 46.1179 28.0492 46.4702C27.839 46.8224 27.5776 47.1222 27.2651 47.3693C26.9526 47.6136 26.6017 47.7997 26.2125 47.9276C25.8262 48.0554 25.4128 48.1193 24.9725 48.1193C24.2282 48.1193 23.5662 47.9375 22.9867 47.5739C22.4071 47.2102 21.9512 46.6932 21.6188 46.0227C21.2864 45.3523 21.1202 44.5568 21.1202 43.6364C21.1202 42.7159 21.2864 41.9205 21.6188 41.25C21.9512 40.5795 22.4071 40.0625 22.9867 39.6989C23.5662 39.3352 24.2282 39.1534 24.9725 39.1534C25.4128 39.1534 25.8262 39.2173 26.2125 39.3452C26.6017 39.473 26.9526 39.6605 27.2651 39.9077C27.5776 40.152 27.839 40.4503 28.0492 40.8026C28.2594 41.152 28.4043 41.5511 28.4838 42ZM30.1916 48V39.2727H31.2484V43.1591H35.9018V39.2727H36.9586V48H35.9018V44.0966H31.2484V48H30.1916ZM40.1312 39.2727V48H39.0744V39.2727H40.1312ZM41.7729 40.2102V39.2727H48.3184V40.2102H45.574V48H44.5172V40.2102H41.7729ZM49.9494 48V39.2727H55.2164V40.2102H51.0062V43.1591H54.9437V44.0966H51.0062V47.0625H55.2846V48H49.9494ZM64.144 42H63.0872C63.0247 41.696 62.9153 41.429 62.7591 41.1989C62.6056 40.9688 62.4181 40.7756 62.1966 40.6193C61.9778 40.4602 61.7349 40.3409 61.4679 40.2614C61.2008 40.1818 60.9224 40.142 60.6326 40.142C60.1042 40.142 59.6255 40.2756 59.1966 40.5426C58.7704 40.8097 58.4309 41.2031 58.1781 41.723C57.9281 42.2429 57.8031 42.8807 57.8031 43.6364C57.8031 44.392 57.9281 45.0298 58.1781 45.5497C58.4309 46.0696 58.7704 46.4631 59.1966 46.7301C59.6255 46.9972 60.1042 47.1307 60.6326 47.1307C60.9224 47.1307 61.2008 47.0909 61.4679 47.0114C61.7349 46.9318 61.9778 46.8139 62.1966 46.6577C62.4181 46.4986 62.6056 46.304 62.7591 46.0739C62.9153 45.8409 63.0247 45.5739 63.0872 45.2727H64.144C64.0645 45.7187 63.9196 46.1179 63.7093 46.4702C63.4991 46.8224 63.2377 47.1222 62.9252 47.3693C62.6127 47.6136 62.2619 47.7997 61.8727 47.9276C61.4863 48.0554 61.073 48.1193 60.6326 48.1193C59.8883 48.1193 59.2264 47.9375 58.6468 47.5739C58.0673 47.2102 57.6113 46.6932 57.2789 46.0227C56.9466 45.3523 56.7804 44.5568 56.7804 43.6364C56.7804 42.7159 56.9466 41.9205 57.2789 41.25C57.6113 40.5795 58.0673 40.0625 58.6468 39.6989C59.2264 39.3352 59.8883 39.1534 60.6326 39.1534C61.073 39.1534 61.4863 39.2173 61.8727 39.3452C62.2619 39.473 62.6127 39.6605 62.9252 39.9077C63.2377 40.152 63.4991 40.4503 63.7093 40.8026C63.9196 41.152 64.0645 41.5511 64.144 42ZM65.3745 40.2102V39.2727H71.9199V40.2102H69.1756V48H68.1188V40.2102H65.3745ZM79.2782 39.2727H80.3351V45.0511C80.3351 45.6477 80.1944 46.1804 79.9132 46.6491C79.6348 47.1151 79.2413 47.483 78.7328 47.7528C78.2243 48.0199 77.6277 48.1534 76.943 48.1534C76.2583 48.1534 75.6618 48.0199 75.1532 47.7528C74.6447 47.483 74.2498 47.1151 73.9686 46.6491C73.6902 46.1804 73.551 45.6477 73.551 45.0511V39.2727H74.6078V44.9659C74.6078 45.392 74.7015 45.7713 74.889 46.1037C75.0765 46.4332 75.3436 46.6932 75.6902 46.8835C76.0396 47.071 76.4572 47.1648 76.943 47.1648C77.4288 47.1648 77.8464 47.071 78.1958 46.8835C78.5453 46.6932 78.8123 46.4332 78.997 46.1037C79.1845 45.7713 79.2782 45.392 79.2782 44.9659V39.2727ZM82.4455 48V39.2727H85.3944C86.0762 39.2727 86.6358 39.3892 87.0733 39.6222C87.5108 39.8523 87.8347 40.169 88.0449 40.5724C88.2551 40.9759 88.3603 41.4347 88.3603 41.9489C88.3603 42.4631 88.2551 42.919 88.0449 43.3168C87.8347 43.7145 87.5123 44.027 87.0776 44.2543C86.6429 44.4787 86.0875 44.5909 85.4114 44.5909H83.025V43.6364H85.3773C85.8432 43.6364 86.2182 43.5682 86.5023 43.4318C86.7892 43.2955 86.9966 43.1023 87.1245 42.8523C87.2551 42.5994 87.3205 42.2983 87.3205 41.9489C87.3205 41.5994 87.2551 41.294 87.1245 41.0327C86.9938 40.7713 86.785 40.5696 86.498 40.4276C86.2111 40.2827 85.8319 40.2102 85.3603 40.2102H83.5023V48H82.4455ZM86.5534 44.0795L88.7012 48H87.4739L85.3603 44.0795H86.5534ZM90.1213 48V39.2727H95.3883V40.2102H91.1781V43.1591H95.1156V44.0966H91.1781V47.0625H95.4565V48H90.1213ZM101.026 48H99.9181L103.123 39.2727H104.214L107.418 48H106.31L103.702 40.6534H103.634L101.026 48ZM101.435 44.5909H105.901V45.5284H101.435V44.5909ZM115.698 39.2727V48H114.675L109.92 41.1477H109.834V48H108.778V39.2727H109.8L114.573 46.142H114.658V39.2727H115.698ZM120.506 48H117.813V39.2727H120.625C121.472 39.2727 122.196 39.4474 122.798 39.7969C123.401 40.1435 123.862 40.642 124.183 41.2926C124.504 41.9403 124.665 42.7159 124.665 43.6193C124.665 44.5284 124.503 45.3111 124.179 45.9673C123.855 46.6207 123.384 47.1236 122.764 47.4759C122.145 47.8253 121.392 48 120.506 48ZM118.869 47.0625H120.438C121.159 47.0625 121.757 46.9233 122.232 46.6449C122.706 46.3665 123.06 45.9702 123.293 45.456C123.526 44.9418 123.642 44.3295 123.642 43.6193C123.642 42.9148 123.527 42.3082 123.297 41.7997C123.067 41.2884 122.723 40.8963 122.266 40.6236C121.808 40.348 121.239 40.2102 120.557 40.2102H118.869V47.0625Z" fill="#fff"/>
<path d="M21.6609 53.2727L24.2518 60.6193H24.354L26.945 53.2727H28.0529L24.8484 62H23.7575L20.5529 53.2727H21.6609ZM30.4691 53.2727V62H29.4123V53.2727H30.4691ZM37.3608 55.4545C37.3097 55.0227 37.1023 54.6875 36.7386 54.4489C36.375 54.2102 35.929 54.0909 35.4006 54.0909C35.0142 54.0909 34.6761 54.1534 34.3864 54.2784C34.0994 54.4034 33.875 54.5753 33.7131 54.794C33.554 55.0128 33.4744 55.2614 33.4744 55.5398C33.4744 55.7727 33.5298 55.973 33.6406 56.1406C33.7543 56.3054 33.8991 56.4432 34.0753 56.554C34.2514 56.6619 34.4361 56.7514 34.6293 56.8224C34.8224 56.8906 35 56.946 35.1619 56.9886L36.0483 57.2273C36.2756 57.2869 36.5284 57.3693 36.8068 57.4744C37.0881 57.5795 37.3565 57.723 37.6122 57.9048C37.8707 58.0838 38.0838 58.3139 38.2514 58.5952C38.419 58.8764 38.5028 59.2216 38.5028 59.6307C38.5028 60.1023 38.3793 60.5284 38.1321 60.9091C37.8878 61.2898 37.5298 61.5923 37.0582 61.8168C36.5895 62.0412 36.0199 62.1534 35.3494 62.1534C34.7244 62.1534 34.1832 62.0526 33.7259 61.8509C33.2713 61.6491 32.9134 61.3679 32.652 61.0071C32.3935 60.6463 32.2472 60.2273 32.2131 59.75H33.304C33.3324 60.0795 33.4432 60.3523 33.6364 60.5682C33.8324 60.7812 34.0795 60.9403 34.3778 61.0455C34.679 61.1477 35.0028 61.1989 35.3494 61.1989C35.7528 61.1989 36.1151 61.1335 36.4361 61.0028C36.7571 60.8693 37.0114 60.6847 37.1989 60.4489C37.3864 60.2102 37.4801 59.9318 37.4801 59.6136C37.4801 59.3239 37.3991 59.0881 37.2372 58.9062C37.0753 58.7244 36.8622 58.5767 36.598 58.4631C36.3338 58.3494 36.0483 58.25 35.7415 58.1648L34.6676 57.858C33.9858 57.6619 33.446 57.3821 33.0483 57.0185C32.6506 56.6548 32.4517 56.179 32.4517 55.5909C32.4517 55.1023 32.5838 54.6761 32.848 54.3125C33.1151 53.946 33.473 53.6619 33.9219 53.4602C34.3736 53.2557 34.8778 53.1534 35.4347 53.1534C35.9972 53.1534 36.4972 53.2543 36.9347 53.456C37.3722 53.6548 37.7188 53.9276 37.9744 54.2741C38.233 54.6207 38.3693 55.0142 38.3835 55.4545H37.3608ZM45.9677 53.2727H47.0245V59.0511C47.0245 59.6477 46.8839 60.1804 46.6026 60.6491C46.3242 61.1151 45.9308 61.483 45.4222 61.7528C44.9137 62.0199 44.3171 62.1534 43.6325 62.1534C42.9478 62.1534 42.3512 62.0199 41.8427 61.7528C41.3342 61.483 40.9393 61.1151 40.658 60.6491C40.3796 60.1804 40.2404 59.6477 40.2404 59.0511V53.2727H41.2972V58.9659C41.2972 59.392 41.391 59.7713 41.5785 60.1037C41.766 60.4332 42.033 60.6932 42.3796 60.8835C42.729 61.071 43.1467 61.1648 43.6325 61.1648C44.1183 61.1648 44.5359 61.071 44.8853 60.8835C45.2347 60.6932 45.5018 60.4332 45.6864 60.1037C45.8739 59.7713 45.9677 59.392 45.9677 58.9659V53.2727ZM49.4929 62H48.3849L51.5895 53.2727H52.6804L55.8849 62H54.777L52.169 54.6534H52.1009L49.4929 62ZM49.902 58.5909H54.3679V59.5284H49.902V58.5909ZM57.2443 62V53.2727H58.3011V61.0625H62.358V62H57.2443ZM65.0511 53.2727V62H63.9943V53.2727H65.0511ZM66.8803 62V61.233L71.5849 54.2102H66.8292V53.2727H72.8462V54.0398L68.1417 61.0625H72.8974V62H66.8803ZM75.0281 62H73.9201L77.1246 53.2727H78.2156L81.4201 62H80.3121L77.7042 54.6534H77.636L75.0281 62ZM75.4371 58.5909H79.9031V59.5284H75.4371V58.5909ZM81.2827 54.2102V53.2727H87.8281V54.2102H85.0838V62H84.027V54.2102H81.2827ZM90.516 53.2727V62H89.4592V53.2727H90.516ZM99.9986 57.6364C99.9986 58.5568 99.8324 59.3523 99.5 60.0227C99.1676 60.6932 98.7116 61.2102 98.1321 61.5739C97.5526 61.9375 96.8906 62.1193 96.1463 62.1193C95.402 62.1193 94.7401 61.9375 94.1605 61.5739C93.581 61.2102 93.125 60.6932 92.7926 60.0227C92.4602 59.3523 92.294 58.5568 92.294 57.6364C92.294 56.7159 92.4602 55.9205 92.7926 55.25C93.125 54.5795 93.581 54.0625 94.1605 53.6989C94.7401 53.3352 95.402 53.1534 96.1463 53.1534C96.8906 53.1534 97.5526 53.3352 98.1321 53.6989C98.7116 54.0625 99.1676 54.5795 99.5 55.25C99.8324 55.9205 99.9986 56.7159 99.9986 57.6364ZM98.9759 57.6364C98.9759 56.8807 98.8494 56.2429 98.5966 55.723C98.3466 55.2031 98.0071 54.8097 97.5781 54.5426C97.152 54.2756 96.6747 54.142 96.1463 54.142C95.6179 54.142 95.1392 54.2756 94.7102 54.5426C94.2841 54.8097 93.9446 55.2031 93.6918 55.723C93.4418 56.2429 93.3168 56.8807 93.3168 57.6364C93.3168 58.392 93.4418 59.0298 93.6918 59.5497C93.9446 60.0696 94.2841 60.4631 94.7102 60.7301C95.1392 60.9972 95.6179 61.1307 96.1463 61.1307C96.6747 61.1307 97.152 60.9972 97.5781 60.7301C98.0071 60.4631 98.3466 60.0696 98.5966 59.5497C98.8494 59.0298 98.9759 58.392 98.9759 57.6364ZM108.696 53.2727V62H107.673L102.918 55.1477H102.832V62H101.776V53.2727H102.798L107.571 60.142H107.656V53.2727H108.696Z" fill="#fff"/>
<path d="M47.7358 67.4545C47.6847 67.0227 47.4773 66.6875 47.1136 66.4489C46.75 66.2102 46.304 66.0909 45.7756 66.0909C45.3892 66.0909 45.0511 66.1534 44.7614 66.2784C44.4744 66.4034 44.25 66.5753 44.0881 66.794C43.929 67.0128 43.8494 67.2614 43.8494 67.5398C43.8494 67.7727 43.9048 67.973 44.0156 68.1406C44.1293 68.3054 44.2741 68.4432 44.4503 68.554C44.6264 68.6619 44.8111 68.7514 45.0043 68.8224C45.1974 68.8906 45.375 68.946 45.5369 68.9886L46.4233 69.2273C46.6506 69.2869 46.9034 69.3693 47.1818 69.4744C47.4631 69.5795 47.7315 69.723 47.9872 69.9048C48.2457 70.0838 48.4588 70.3139 48.6264 70.5952C48.794 70.8764 48.8778 71.2216 48.8778 71.6307C48.8778 72.1023 48.7543 72.5284 48.5071 72.9091C48.2628 73.2898 47.9048 73.5923 47.4332 73.8168C46.9645 74.0412 46.3949 74.1534 45.7244 74.1534C45.0994 74.1534 44.5582 74.0526 44.1009 73.8509C43.6463 73.6491 43.2884 73.3679 43.027 73.0071C42.7685 72.6463 42.6222 72.2273 42.5881 71.75H43.679C43.7074 72.0795 43.8182 72.3523 44.0114 72.5682C44.2074 72.7812 44.4545 72.9403 44.7528 73.0455C45.054 73.1477 45.3778 73.1989 45.7244 73.1989C46.1278 73.1989 46.4901 73.1335 46.8111 73.0028C47.1321 72.8693 47.3864 72.6847 47.5739 72.4489C47.7614 72.2102 47.8551 71.9318 47.8551 71.6136C47.8551 71.3239 47.7741 71.0881 47.6122 70.9062C47.4503 70.7244 47.2372 70.5767 46.973 70.4631C46.7088 70.3494 46.4233 70.25 46.1165 70.1648L45.0426 69.858C44.3608 69.6619 43.821 69.3821 43.4233 69.0185C43.0256 68.6548 42.8267 68.179 42.8267 67.5909C42.8267 67.1023 42.9588 66.6761 43.223 66.3125C43.4901 65.946 43.848 65.6619 44.2969 65.4602C44.7486 65.2557 45.2528 65.1534 45.8097 65.1534C46.3722 65.1534 46.8722 65.2543 47.3097 65.456C47.7472 65.6548 48.0938 65.9276 48.3494 66.2741C48.608 66.6207 48.7443 67.0142 48.7585 67.4545H47.7358ZM50.1381 66.2102V65.2727H56.6836V66.2102H53.9393V74H52.8825V66.2102H50.1381ZM64.0419 65.2727H65.0987V71.0511C65.0987 71.6477 64.9581 72.1804 64.6768 72.6491C64.3984 73.1151 64.005 73.483 63.4964 73.7528C62.9879 74.0199 62.3913 74.1534 61.7067 74.1534C61.022 74.1534 60.4254 74.0199 59.9169 73.7528C59.4084 73.483 59.0135 73.1151 58.7322 72.6491C58.4538 72.1804 58.3146 71.6477 58.3146 71.0511V65.2727H59.3714V70.9659C59.3714 71.392 59.4652 71.7713 59.6527 72.1037C59.8402 72.4332 60.1072 72.6932 60.4538 72.8835C60.8033 73.071 61.2209 73.1648 61.7067 73.1648C62.1925 73.1648 62.6101 73.071 62.9595 72.8835C63.3089 72.6932 63.576 72.4332 63.7607 72.1037C63.9482 71.7713 64.0419 71.392 64.0419 70.9659V65.2727ZM69.9023 74H67.2092V65.2727H70.0217C70.8683 65.2727 71.5927 65.4474 72.195 65.7969C72.7972 66.1435 73.2589 66.642 73.5799 67.2926C73.9009 67.9403 74.0614 68.7159 74.0614 69.6193C74.0614 70.5284 73.8995 71.3111 73.5756 71.9673C73.2518 72.6207 72.7802 73.1236 72.1609 73.4759C71.5415 73.8253 70.7887 74 69.9023 74ZM68.266 73.0625H69.8342C70.5558 73.0625 71.1538 72.9233 71.6282 72.6449C72.1026 72.3665 72.4563 71.9702 72.6893 71.456C72.9222 70.9418 73.0387 70.3295 73.0387 69.6193C73.0387 68.9148 72.9237 68.3082 72.6935 67.7997C72.4634 67.2884 72.1197 66.8963 71.6623 66.6236C71.2049 66.348 70.6353 66.2102 69.9535 66.2102H68.266V73.0625ZM76.891 65.2727V74H75.8342V65.2727H76.891ZM86.3736 69.6364C86.3736 70.5568 86.2074 71.3523 85.875 72.0227C85.5426 72.6932 85.0866 73.2102 84.5071 73.5739C83.9276 73.9375 83.2656 74.1193 82.5213 74.1193C81.777 74.1193 81.1151 73.9375 80.5355 73.5739C79.956 73.2102 79.5 72.6932 79.1676 72.0227C78.8352 71.3523 78.669 70.5568 78.669 69.6364C78.669 68.7159 78.8352 67.9205 79.1676 67.25C79.5 66.5795 79.956 66.0625 80.5355 65.6989C81.1151 65.3352 81.777 65.1534 82.5213 65.1534C83.2656 65.1534 83.9276 65.3352 84.5071 65.6989C85.0866 66.0625 85.5426 66.5795 85.875 67.25C86.2074 67.9205 86.3736 68.7159 86.3736 69.6364ZM85.3509 69.6364C85.3509 68.8807 85.2244 68.2429 84.9716 67.723C84.7216 67.2031 84.3821 66.8097 83.9531 66.5426C83.527 66.2756 83.0497 66.142 82.5213 66.142C81.9929 66.142 81.5142 66.2756 81.0852 66.5426C80.6591 66.8097 80.3196 67.2031 80.0668 67.723C79.8168 68.2429 79.6918 68.8807 79.6918 69.6364C79.6918 70.392 79.8168 71.0298 80.0668 71.5497C80.3196 72.0696 80.6591 72.4631 81.0852 72.7301C81.5142 72.9972 81.9929 73.1307 82.5213 73.1307C83.0497 73.1307 83.527 72.9972 83.9531 72.7301C84.3821 72.4631 84.7216 72.0696 84.9716 71.5497C85.2244 71.0298 85.3509 70.392 85.3509 69.6364Z" fill="#fff"/>
</g>
<defs>
<clipPath id="clip0_8028_86">
<rect width="130" height="75" fill="white"/>
</clipPath>
</defs>
</svg>
