<svg xmlns="http://www.w3.org/2000/svg" xmlns:xlink="http://www.w3.org/1999/xlink" width="26px" height="26px" viewBox="0 0 26 26" version="1.1">
<path d="M 8.449219 2.167969 L 17.550781 2.167969 C 21.019531 2.167969 23.832031 4.980469 23.832031 8.449219 L 23.832031 17.550781 C 23.832031 21.019531 21.019531 23.832031 17.550781 23.832031 L 8.449219 23.832031 C 4.980469 23.832031 2.167969 21.019531 2.167969 17.550781 L 2.167969 8.449219 C 2.167969 4.980469 4.980469 2.167969 8.449219 2.167969 Z M 8.234375 4.332031 C 6.078125 4.332031 4.332031 6.078125 4.332031 8.234375 L 4.332031 17.765625 C 4.332031 19.921875 6.078125 21.667969 8.234375 21.667969 L 17.765625 21.667969 C 19.921875 21.667969 21.667969 19.921875 21.667969 17.765625 L 21.667969 8.234375 C 21.667969 6.078125 19.921875 4.332031 17.765625 4.332031 Z M 18.6875 5.957031 C 19.433594 5.957031 20.042969 6.566406 20.042969 7.3125 C 20.042969 8.058594 19.433594 8.667969 18.6875 8.667969 C 17.941406 8.667969 17.332031 8.058594 17.332031 7.3125 C 17.332031 6.566406 17.941406 5.957031 18.6875 5.957031 Z M 13 7.582031 C 15.992188 7.582031 18.417969 10.007812 18.417969 13 C 18.417969 15.992188 15.992188 18.417969 13 18.417969 C 10.007812 18.417969 7.582031 15.992188 7.582031 13 C 7.582031 10.007812 10.007812 7.582031 13 7.582031 Z M 13 9.75 C 11.203125 9.75 9.75 11.207031 9.75 13 C 9.75 14.796875 11.203125 16.25 13 16.25 C 14.796875 16.25 16.25 14.796875 16.25 13 C 16.25 11.207031 14.796875 9.75 13 9.75 Z M 13 9.75 " fill=""/>
</svg>
