<svg xmlns="http://www.w3.org/2000/svg" xmlns:xlink="http://www.w3.org/1999/xlink" width="24px" height="32px" viewBox="0 0 24 32" version="1.1">
<path d="M 13.480469 31.199219 C 16.6875 27.1875 24 17.460938 24 12 C 24 5.375 18.625 0 12 0 C 5.375 0 0 5.375 0 12 C 0 17.460938 7.3125 27.1875 10.519531 31.199219 C 11.289062 32.15625 12.710938 32.15625 13.480469 31.199219 Z M 12 8 C 14.210938 8 16 9.789062 16 12 C 16 14.210938 14.210938 16 12 16 C 9.789062 16 8 14.210938 8 12 C 8 9.789062 9.789062 8 12 8 Z M 12 8 " fill=""/>
</svg>
