<svg width="10" height="10" viewBox="0 0 10 10" fill="none" xmlns="http://www.w3.org/2000/svg">

<path d="M8.72484 3.24206C8.65709 3.21541 8.58492 3.20183 8.51212 3.20203H8.5045C8.12004 3.20775 7.68889 3.5678 7.46264 4.11236C7.19141 4.76385 7.31626 5.4304 7.7436 5.60176C7.81128 5.6284 7.88339 5.64198 7.95612 5.64178C8.34248 5.64178 8.77954 5.27963 9.0077 4.73145C9.27702 4.07996 9.15027 3.41341 8.72484 3.24206Z" stroke="#5d98d8" stroke-width="0.609939" stroke-miterlimit="10"/>
<path d="M6.24443 5.78443C5.71455 4.90516 5.48582 4.57446 4.8797 4.57446C4.27357 4.57446 4.04294 4.90726 3.51305 5.78443C3.05941 6.53465 2.1426 6.59717 1.91387 7.23437C1.86747 7.35108 1.84416 7.47569 1.84525 7.60128C1.84525 8.11954 2.24171 8.53907 2.72966 8.53907C3.33579 8.53907 4.16111 8.05512 4.8816 8.05512C5.60209 8.05512 6.4236 8.53907 7.02973 8.53907C7.51768 8.53907 7.91224 8.11973 7.91224 7.60128C7.91268 7.47557 7.88872 7.35096 7.84171 7.23437C7.61298 6.59488 6.69808 6.53465 6.24443 5.78443Z" stroke="#5d98d8" stroke-width="0.609939" stroke-miterlimit="10"/>
<path d="M3.66931 3.73572C3.69483 3.73574 3.72032 3.73383 3.74555 3.73001C4.18795 3.66577 4.46414 3.05278 4.36388 2.3605C4.26953 1.70787 3.87345 1.21973 3.45926 1.21973C3.43374 1.21971 3.40825 1.22162 3.38302 1.22544C2.94062 1.28968 2.66443 1.90267 2.76469 2.59495C2.85904 3.24568 3.25512 3.73572 3.66931 3.73572Z" stroke="#5d98d8" stroke-width="0.609939" stroke-miterlimit="10"/>
<path d="M6.99368 2.59495C7.09394 1.90267 6.81775 1.28968 6.37535 1.22544C6.35012 1.22162 6.32463 1.21971 6.29911 1.21973C5.88492 1.21973 5.4896 1.70787 5.39506 2.3605C5.29481 3.05278 5.57099 3.66577 6.01339 3.73001C6.03862 3.73383 6.06411 3.73574 6.08963 3.73572C6.50382 3.73572 6.8999 3.24568 6.99368 2.59495Z" stroke="#5d98d8" stroke-width="0.609939" stroke-miterlimit="10"/>
<path d="M2.01593 5.60176C2.44269 5.43021 2.56735 4.76309 2.2965 4.11236C2.06853 3.56418 1.63186 3.20203 1.24607 3.20203C1.17334 3.20183 1.10122 3.21541 1.03355 3.24206C0.606779 3.4136 0.482122 4.08072 0.752973 4.73145C0.980938 5.27963 1.41762 5.64178 1.8034 5.64178C1.87614 5.64198 1.94825 5.6284 2.01593 5.60176V5.60176Z" stroke="#5d98d8" stroke-width="0.609939" stroke-miterlimit="10"/>

</svg>
