<svg width="24" height="24" viewBox="0 0 24 24" fill="none" xmlns="http://www.w3.org/2000/svg">
<path d="M13.953 1.88395C13.7561 1.53982 13.4718 1.25381 13.1289 1.0549C12.7859 0.855982 12.3965 0.751221 12 0.751221C11.6035 0.751221 11.2141 0.855982 10.8712 1.0549C10.5282 1.25381 10.2439 1.53982 10.047 1.88395L7.49101 6.35395C7.39215 6.52681 7.36601 6.73185 7.41833 6.92398C7.47065 7.11611 7.59716 7.27959 7.77001 7.37845C7.94286 7.47731 8.14791 7.50345 8.34004 7.45113C8.53217 7.39881 8.69565 7.27231 8.79451 7.09945L11.349 2.62795C11.4146 2.51324 11.5094 2.4179 11.6237 2.3516C11.738 2.28529 11.8679 2.25037 12 2.25037C12.1322 2.25037 12.262 2.28529 12.3763 2.3516C12.4906 2.4179 12.5854 2.51324 12.651 2.62795L16.461 9.29395L14.577 8.78845C14.3849 8.73673 14.18 8.76347 14.0076 8.86277C13.8352 8.96207 13.7092 9.1258 13.6575 9.31795C13.6058 9.5101 13.6325 9.71492 13.7318 9.88736C13.8311 10.0598 13.9949 10.1857 14.187 10.2375L17.8095 11.208C17.9047 11.2336 18.0039 11.2402 18.1016 11.2275C18.1993 11.2148 18.2936 11.1829 18.379 11.1337C18.4644 11.0846 18.5392 11.019 18.5993 10.9409C18.6594 10.8628 18.7034 10.7736 18.729 10.6785L19.6995 7.05595C19.725 6.96081 19.7315 6.86157 19.7187 6.76391C19.7059 6.66625 19.6739 6.57207 19.6247 6.48676C19.5754 6.40144 19.5099 6.32666 19.4317 6.26669C19.3536 6.20671 19.2644 6.16271 19.1693 6.1372C19.0741 6.11169 18.9749 6.10517 18.8772 6.11801C18.7796 6.13086 18.6854 6.16281 18.6001 6.21205C18.5148 6.26128 18.44 6.32684 18.38 6.40498C18.32 6.48312 18.276 6.57231 18.2505 6.66745L17.751 8.53045L13.953 1.88395ZM4.45951 11.6595L2.57701 12.165C2.38486 12.2167 2.18004 12.1899 2.0076 12.0906C1.83516 11.9913 1.70923 11.8276 1.65751 11.6355C1.60579 11.4433 1.63252 11.2385 1.73183 11.066C1.83113 10.8936 1.99486 10.7677 2.18701 10.716L5.81101 9.74545C6.00295 9.69411 6.20743 9.72103 6.37954 9.8203C6.55166 9.91958 6.67734 10.0831 6.72901 10.275L7.69951 13.8975C7.75103 14.0896 7.72411 14.2943 7.62466 14.4666C7.52522 14.6389 7.36141 14.7647 7.16926 14.8162C6.97711 14.8677 6.77237 14.8408 6.60007 14.7414C6.42777 14.6419 6.30203 14.4781 6.25051 14.286L5.75101 12.423L1.93351 19.104C1.86837 19.218 1.83431 19.3471 1.83476 19.4785C1.8352 19.6098 1.87013 19.7387 1.93604 19.8523C2.00195 19.9659 2.09654 20.0602 2.21034 20.1258C2.32415 20.1914 2.45317 20.2259 2.58451 20.226H7.50001C7.69892 20.226 7.88969 20.305 8.03034 20.4456C8.17099 20.5863 8.25001 20.777 8.25001 20.976C8.25001 21.1749 8.17099 21.3656 8.03034 21.5063C7.88969 21.6469 7.69892 21.726 7.50001 21.726H2.58451C2.19049 21.7258 1.80342 21.6222 1.46201 21.4255C1.1206 21.2288 0.836836 20.9459 0.639096 20.6051C0.441357 20.2643 0.33658 19.8776 0.335248 19.4836C0.333917 19.0895 0.436078 18.7021 0.63151 18.36L4.45951 11.6595ZM20.7945 13.854C20.747 13.766 20.6823 13.6884 20.6044 13.6258C20.5264 13.5632 20.4367 13.5168 20.3406 13.4894C20.2444 13.4619 20.1438 13.454 20.0445 13.466C19.9453 13.478 19.8494 13.5098 19.7626 13.5594C19.6758 13.609 19.5998 13.6754 19.539 13.7548C19.4783 13.8343 19.434 13.925 19.4088 14.0218C19.3837 14.1185 19.3781 14.2194 19.3925 14.3183C19.4069 14.4173 19.4409 14.5123 19.4925 14.598L22.0665 19.104C22.1317 19.218 22.1657 19.3471 22.1653 19.4785C22.1648 19.6098 22.1299 19.7387 22.064 19.8523C21.9981 19.9659 21.9035 20.0602 21.7897 20.1258C21.6759 20.1914 21.5468 20.2259 21.4155 20.226H13.0605L14.031 19.257C14.1716 19.1161 14.2506 18.9252 14.2504 18.7262C14.2503 18.5271 14.1711 18.3363 14.0303 18.1957C13.9605 18.1261 13.8778 18.0709 13.7867 18.0332C13.6956 17.9956 13.598 17.9762 13.4995 17.9763C13.3005 17.9764 13.1096 18.0556 12.969 18.1965L10.719 20.4465C10.649 20.5159 10.5935 20.5985 10.5556 20.6895C10.5177 20.7805 10.4982 20.8781 10.4982 20.9767C10.4982 21.0753 10.5177 21.1729 10.5556 21.2639C10.5935 21.3549 10.649 21.4375 10.719 21.507L12.969 23.757C13.1096 23.8978 13.3005 23.977 13.4995 23.9771C13.598 23.9772 13.6956 23.9578 13.7867 23.9202C13.8778 23.8826 13.9605 23.8273 14.0303 23.7577C14.1 23.6881 14.1553 23.6054 14.1931 23.5144C14.2309 23.4233 14.2504 23.3258 14.2504 23.2272C14.2505 23.1287 14.2312 23.0311 14.1935 22.94C14.1559 22.8489 14.1006 22.7662 14.031 22.6965L13.0605 21.726H21.4155C21.8095 21.7258 22.1966 21.6222 22.538 21.4255C22.8794 21.2288 23.1632 20.9459 23.3609 20.6051C23.5587 20.2643 23.6634 19.8776 23.6648 19.4836C23.6661 19.0895 23.5639 18.7021 23.3685 18.36L20.7945 13.854Z" fill="#5d98d8"/>
</svg>
