<svg width="24" height="24" viewBox="0 0 24 24" fill="none" xmlns="http://www.w3.org/2000/svg">
<g clip-path="url(#clip0_201_28297)">
<path d="M10.4251 0.6525C11.2951 -0.2175 12.7051 -0.2175 13.5751 0.6525L23.3476 10.4265C24.2176 11.2965 24.2176 12.705 23.3476 13.5735L13.5751 23.3475C12.7051 24.2175 11.2966 24.2175 10.4281 23.3475L0.652568 13.575C0.445663 13.3685 0.281512 13.1233 0.169512 12.8533C0.0575126 12.5832 -0.000137329 12.2938 -0.000137329 12.0015C-0.000137329 11.7092 0.0575126 11.4198 0.169512 11.1497C0.281512 10.8797 0.445663 10.6345 0.652568 10.428L10.4251 0.6525ZM12.5251 1.7025C12.3858 1.56327 12.197 1.48505 12.0001 1.48505C11.8032 1.48505 11.6143 1.56327 11.4751 1.7025L1.70107 11.475C1.56184 11.6142 1.48362 11.8031 1.48362 12C1.48362 12.1969 1.56184 12.3858 1.70107 12.525L11.4751 22.299C11.6143 22.4382 11.8032 22.5164 12.0001 22.5164C12.197 22.5164 12.3858 22.4382 12.5251 22.299L22.2991 12.525C22.4383 12.3858 22.5165 12.1969 22.5165 12C22.5165 11.8031 22.4383 11.6142 22.2991 11.475L12.5251 1.701V1.7025Z" fill="#22a1c4"/>
<path d="M10.503 16.5C10.503 16.303 10.5418 16.108 10.6172 15.926C10.6926 15.744 10.8031 15.5786 10.9423 15.4393C11.0816 15.3 11.247 15.1896 11.429 15.1142C11.611 15.0388 11.806 15 12.003 15C12.2 15 12.395 15.0388 12.577 15.1142C12.759 15.1896 12.9244 15.3 13.0637 15.4393C13.2029 15.5786 13.3134 15.744 13.3888 15.926C13.4642 16.108 13.503 16.303 13.503 16.5C13.503 16.8978 13.345 17.2793 13.0637 17.5607C12.7824 17.842 12.4008 18 12.003 18C11.6052 18 11.2236 17.842 10.9423 17.5607C10.661 17.2793 10.503 16.8978 10.503 16.5ZM10.65 7.49249C10.63 7.30325 10.6501 7.11193 10.7088 6.93093C10.7675 6.74994 10.8637 6.58331 10.991 6.44187C11.1183 6.30043 11.2739 6.18733 11.4477 6.10992C11.6215 6.0325 11.8097 5.99249 12 5.99249C12.1903 5.99249 12.3785 6.0325 12.5523 6.10992C12.7261 6.18733 12.8817 6.30043 13.009 6.44187C13.1363 6.58331 13.2325 6.74994 13.2912 6.93093C13.3499 7.11193 13.37 7.30325 13.35 7.49249L12.825 12.753C12.8074 12.9596 12.7128 13.1522 12.56 13.2924C12.4073 13.4327 12.2074 13.5106 12 13.5106C11.7926 13.5106 11.5927 13.4327 11.44 13.2924C11.2872 13.1522 11.1926 12.9596 11.175 12.753L10.65 7.49249Z" fill="#22a1c4"/>
</g>
<defs>
<clipPath id="clip0_201_28297">
<rect width="24" height="24" fill="white"/>
</clipPath>
</defs>
</svg>
