<svg width="24" height="24" viewBox="0 0 24 24" fill="none" xmlns="http://www.w3.org/2000/svg">
<path d="M5.25 20.2499C5.25 20.4488 5.17098 20.6396 5.03033 20.7803C4.88968 20.9209 4.69891 20.9999 4.5 20.9999C4.30109 20.9999 4.11032 20.9209 3.96967 20.7803C3.82902 20.6396 3.75 20.4488 3.75 20.2499V7.06042L2.031 8.78092C1.96127 8.85065 1.87849 8.90597 1.78738 8.94371C1.69627 8.98144 1.59862 9.00087 1.5 9.00087C1.30084 9.00087 1.10983 8.92175 0.969001 8.78092C0.828171 8.64009 0.749054 8.44908 0.749054 8.24992C0.749054 8.05076 0.828171 7.85975 0.969001 7.71892L3.969 4.72042L3.9795 4.70992C4.1205 4.57297 4.3098 4.49712 4.50635 4.49881C4.7029 4.50049 4.89087 4.57958 5.0295 4.71892L8.0295 7.71892C8.09923 7.78855 8.15457 7.87124 8.19234 7.96226C8.23012 8.05328 8.2496 8.15084 8.24967 8.24939C8.24974 8.34794 8.2304 8.44553 8.19275 8.5366C8.1551 8.62767 8.09988 8.71044 8.03025 8.78017C7.96062 8.8499 7.87793 8.90524 7.78691 8.94301C7.69589 8.98079 7.59833 9.00027 7.49978 9.00034C7.40124 9.00041 7.30364 8.98107 7.21257 8.94342C7.1215 8.90577 7.03873 8.85055 6.969 8.78092L5.25 7.06042V20.2499ZM11.25 5.99992C11.0511 5.99992 10.8603 5.9209 10.7197 5.78025C10.579 5.6396 10.5 5.44883 10.5 5.24992C10.5 5.05101 10.579 4.86024 10.7197 4.71959C10.8603 4.57894 11.0511 4.49992 11.25 4.49992H12.75C12.9489 4.49992 13.1397 4.57894 13.2803 4.71959C13.421 4.86024 13.5 5.05101 13.5 5.24992C13.5 5.44883 13.421 5.6396 13.2803 5.78025C13.1397 5.9209 12.9489 5.99992 12.75 5.99992H11.25ZM11.25 10.4999C11.0511 10.4999 10.8603 10.4209 10.7197 10.2802C10.579 10.1396 10.5 9.94883 10.5 9.74992C10.5 9.55101 10.579 9.36024 10.7197 9.21959C10.8603 9.07894 11.0511 8.99992 11.25 8.99992H15.75C15.9489 8.99992 16.1397 9.07894 16.2803 9.21959C16.421 9.36024 16.5 9.55101 16.5 9.74992C16.5 9.94883 16.421 10.1396 16.2803 10.2802C16.1397 10.4209 15.9489 10.4999 15.75 10.4999H11.25ZM11.25 14.9999C11.0511 14.9999 10.8603 14.9209 10.7197 14.7803C10.579 14.6396 10.5 14.4488 10.5 14.2499C10.5 14.051 10.579 13.8602 10.7197 13.7196C10.8603 13.5789 11.0511 13.4999 11.25 13.4999H18.75C18.9489 13.4999 19.1397 13.5789 19.2803 13.7196C19.421 13.8602 19.5 14.051 19.5 14.2499C19.5 14.4488 19.421 14.6396 19.2803 14.7803C19.1397 14.9209 18.9489 14.9999 18.75 14.9999H11.25ZM10.5 18.7499C10.5 18.9488 10.579 19.1396 10.7197 19.2803C10.8603 19.4209 11.0511 19.4999 11.25 19.4999H21.75C21.9489 19.4999 22.1397 19.4209 22.2803 19.2803C22.421 19.1396 22.5 18.9488 22.5 18.7499C22.5 18.551 22.421 18.3602 22.2803 18.2196C22.1397 18.0789 21.9489 17.9999 21.75 17.9999H11.25C11.0511 17.9999 10.8603 18.0789 10.7197 18.2196C10.579 18.3602 10.5 18.551 10.5 18.7499Z" fill="#5d98d8"/>
</svg>
