<?xml version="1.0" encoding="UTF-8"?>
<svg xmlns="http://www.w3.org/2000/svg" xmlns:xlink="http://www.w3.org/1999/xlink" width="20px" height="19px" viewBox="0 0 20 19" version="1.1">
<g id="surface1">
<path style=" stroke:none;fill-rule:evenodd;fill:rgb(10.980392%,15.294118%,32.156864%);fill-opacity:1;" d="M 19.488281 10.035156 C 19.488281 5.03125 15.289062 0.976562 10.105469 0.976562 C 4.925781 0.976562 0.726562 5.03125 0.726562 10.035156 C 0.726562 14.558594 4.15625 18.304688 8.640625 18.984375 L 8.640625 12.65625 L 6.257812 12.65625 L 6.257812 10.035156 L 8.640625 10.035156 L 8.640625 8.039062 C 8.640625 5.769531 10.042969 4.515625 12.183594 4.515625 C 13.210938 4.515625 14.285156 4.691406 14.285156 4.691406 L 14.285156 6.921875 L 13.101562 6.921875 C 11.9375 6.921875 11.574219 7.621094 11.574219 8.335938 L 11.574219 10.035156 L 14.175781 10.035156 L 13.757812 12.65625 L 11.574219 12.65625 L 11.574219 18.988281 C 16.058594 18.304688 19.488281 14.558594 19.488281 10.035156 Z M 19.488281 10.035156 "/>
</g>
</svg>
