<svg width="10" height="10" viewBox="0 0 10 10" fill="none" xmlns="http://www.w3.org/2000/svg">

<path d="M6.70918 2.43984C6.09428 2.38475 5.4893 2.74481 4.87936 2.74481C4.26942 2.74481 3.66425 2.38266 3.04954 2.43984C1.82967 2.5542 1.21973 3.65972 1.21973 5.48953C1.21973 7.01438 2.4396 9.14917 3.33926 9.14917C4.23892 9.14917 4.32927 8.69171 4.87936 8.69171C5.42945 8.69171 5.5196 9.14917 6.41945 9.14917C7.3193 9.14917 8.53899 7.01438 8.53899 5.48953C8.53899 3.65972 7.98624 2.5542 6.70918 2.43984Z" stroke="#5d98d8" stroke-width="0.609939" stroke-miterlimit="10"/>
<path d="M6.1738 1.58467C5.77353 1.98494 5.30349 2.0993 5.05266 2.13342C5.02972 2.13672 5.00634 2.13476 4.98428 2.12768C4.96222 2.12059 4.94206 2.10857 4.92534 2.09253C4.90862 2.07649 4.89577 2.05685 4.88778 2.0351C4.87979 2.01335 4.87685 1.99007 4.87921 1.96702C4.92445 1.53826 5.1172 1.13853 5.42453 0.836156C5.84386 0.416823 6.30132 0.323426 6.54377 0.305318C6.5664 0.303253 6.58921 0.306273 6.61053 0.314159C6.63184 0.322044 6.65113 0.334595 6.66697 0.350892C6.68281 0.36719 6.69481 0.386823 6.70208 0.408355C6.70936 0.429887 6.71173 0.452773 6.70902 0.475339C6.66116 0.894991 6.4725 1.28604 6.1738 1.58467Z" fill="#5d98d8"/>
<path d="M4.11712 6.70933C4.36977 6.70933 4.57458 6.29971 4.57458 5.79442C4.57458 5.28913 4.36977 4.87952 4.11712 4.87952C3.86448 4.87952 3.65967 5.28913 3.65967 5.79442C3.65967 6.29971 3.86448 6.70933 4.11712 6.70933Z" fill="#5d98d8"/>
<path d="M5.64202 6.70933C5.89467 6.70933 6.09948 6.29971 6.09948 5.79442C6.09948 5.28913 5.89467 4.87952 5.64202 4.87952C5.38938 4.87952 5.18457 5.28913 5.18457 5.79442C5.18457 6.29971 5.38938 6.70933 5.64202 6.70933Z" fill="#5d98d8"/>

</svg>
