<svg width="24" height="24" viewBox="0 0 24 24" fill="none" xmlns="http://www.w3.org/2000/svg">

<path d="M10.5 10.4999V2.12085C10.5 1.72302 10.658 1.34149 10.9393 1.06019C11.2206 0.778885 11.6022 0.62085 12 0.62085C12.3978 0.62085 12.7794 0.778885 13.0607 1.06019C13.342 1.34149 13.5 1.72302 13.5 2.12085V2.99985H21C21.2329 2.99985 21.4625 3.05407 21.6708 3.15821C21.8791 3.26235 22.0603 3.41356 22.2 3.59985L23.6625 5.54985C23.7599 5.67967 23.8125 5.83757 23.8125 5.99985C23.8125 6.16213 23.7599 6.32003 23.6625 6.44985L22.2 8.39985C22.0603 8.58614 21.8791 8.73735 21.6708 8.84149C21.4625 8.94563 21.2329 8.99985 21 8.99985H13.5V23.9999H10.5V16.4999H3C2.76713 16.4999 2.53746 16.4456 2.32918 16.3415C2.1209 16.2374 1.93972 16.0861 1.8 15.8999L0.3375 13.9499C0.240133 13.82 0.1875 13.6621 0.1875 13.4999C0.1875 13.3376 0.240133 13.1797 0.3375 13.0499L1.8 11.0999C1.93972 10.9136 2.1209 10.7624 2.32918 10.6582C2.53746 10.5541 2.76713 10.4999 3 10.4999H10.5ZM12 14.9999V11.9999H3L1.875 13.4999L3 14.9999H12ZM12 7.49985H21L22.125 5.99985L21 4.49985H12V7.49985Z" fill="#5D98D8"/>

</svg>
