<svg width="24" height="24" viewBox="0 0 24 24" fill="none" xmlns="http://www.w3.org/2000/svg">
<path d="M8.6355 1.60644C8.72002 1.65705 8.79374 1.72382 8.85245 1.80293C8.91116 1.88204 8.95371 1.97194 8.97767 2.06749C9.00163 2.16305 9.00652 2.26239 8.99208 2.35984C8.97764 2.45729 8.94414 2.55094 8.8935 2.63544L5.0745 8.99994H18.9255L15.105 2.63544C15.0028 2.46477 14.9725 2.26048 15.0209 2.06751C15.0693 1.87453 15.1923 1.70868 15.363 1.60644C15.5337 1.5042 15.738 1.47394 15.9309 1.52233C16.1239 1.57071 16.2898 1.69377 16.392 1.86444L20.6745 8.99994H22.5C22.8978 8.99994 23.2794 9.15798 23.5607 9.43928C23.842 9.72059 24 10.1021 24 10.4999V11.9999C24 12.3978 23.842 12.7793 23.5607 13.0606C23.2794 13.3419 22.8978 13.4999 22.5 13.4999V20.2499C22.5 21.2445 22.1049 22.1983 21.4016 22.9016C20.6984 23.6049 19.7446 23.9999 18.75 23.9999H5.25C4.25544 23.9999 3.30161 23.6049 2.59835 22.9016C1.89509 22.1983 1.5 21.2445 1.5 20.2499V13.4999C1.10218 13.4999 0.720644 13.3419 0.43934 13.0606C0.158035 12.7793 0 12.3978 0 11.9999V10.4999C0 10.1021 0.158035 9.72059 0.43934 9.43928C0.720644 9.15798 1.10218 8.99994 1.5 8.99994H3.3255L7.605 1.86444C7.65561 1.77992 7.72238 1.7062 7.80149 1.64749C7.8806 1.58878 7.9705 1.54623 8.06605 1.52227C8.16161 1.49832 8.26095 1.49342 8.3584 1.50786C8.45585 1.5223 8.5495 1.5558 8.634 1.60644H8.6355ZM3 13.4999V20.2499C3 20.8467 3.23705 21.419 3.65901 21.8409C4.08097 22.2629 4.65326 22.4999 5.25 22.4999H18.75C19.3467 22.4999 19.919 22.2629 20.341 21.8409C20.7629 21.419 21 20.8467 21 20.2499V13.4999H3ZM1.5 10.4999V11.9999H22.5V10.4999H1.5ZM6 14.9999C6.19891 14.9999 6.38968 15.079 6.53033 15.2196C6.67098 15.3603 6.75 15.551 6.75 15.7499V20.2499C6.75 20.4489 6.67098 20.6396 6.53033 20.7803C6.38968 20.9209 6.19891 20.9999 6 20.9999C5.80109 20.9999 5.61032 20.9209 5.46967 20.7803C5.32902 20.6396 5.25 20.4489 5.25 20.2499V15.7499C5.25 15.551 5.32902 15.3603 5.46967 15.2196C5.61032 15.079 5.80109 14.9999 6 14.9999ZM9 14.9999C9.19891 14.9999 9.38968 15.079 9.53033 15.2196C9.67098 15.3603 9.75 15.551 9.75 15.7499V20.2499C9.75 20.4489 9.67098 20.6396 9.53033 20.7803C9.38968 20.9209 9.19891 20.9999 9 20.9999C8.80109 20.9999 8.61032 20.9209 8.46967 20.7803C8.32902 20.6396 8.25 20.4489 8.25 20.2499V15.7499C8.25 15.551 8.32902 15.3603 8.46967 15.2196C8.61032 15.079 8.80109 14.9999 9 14.9999ZM12 14.9999C12.1989 14.9999 12.3897 15.079 12.5303 15.2196C12.671 15.3603 12.75 15.551 12.75 15.7499V20.2499C12.75 20.4489 12.671 20.6396 12.5303 20.7803C12.3897 20.9209 12.1989 20.9999 12 20.9999C11.8011 20.9999 11.6103 20.9209 11.4697 20.7803C11.329 20.6396 11.25 20.4489 11.25 20.2499V15.7499C11.25 15.551 11.329 15.3603 11.4697 15.2196C11.6103 15.079 11.8011 14.9999 12 14.9999ZM15 14.9999C15.1989 14.9999 15.3897 15.079 15.5303 15.2196C15.671 15.3603 15.75 15.551 15.75 15.7499V20.2499C15.75 20.4489 15.671 20.6396 15.5303 20.7803C15.3897 20.9209 15.1989 20.9999 15 20.9999C14.8011 20.9999 14.6103 20.9209 14.4697 20.7803C14.329 20.6396 14.25 20.4489 14.25 20.2499V15.7499C14.25 15.551 14.329 15.3603 14.4697 15.2196C14.6103 15.079 14.8011 14.9999 15 14.9999ZM18 14.9999C18.1989 14.9999 18.3897 15.079 18.5303 15.2196C18.671 15.3603 18.75 15.551 18.75 15.7499V20.2499C18.75 20.4489 18.671 20.6396 18.5303 20.7803C18.3897 20.9209 18.1989 20.9999 18 20.9999C17.8011 20.9999 17.6103 20.9209 17.4697 20.7803C17.329 20.6396 17.25 20.4489 17.25 20.2499V15.7499C17.25 15.551 17.329 15.3603 17.4697 15.2196C17.6103 15.079 17.8011 14.9999 18 14.9999Z" fill="#5d98d8"/>
</svg>
