<?xml version="1.0" encoding="UTF-8"?>
<svg xmlns="http://www.w3.org/2000/svg" xmlns:xlink="http://www.w3.org/1999/xlink" width="20px" height="18px" viewBox="0 0 20 18" version="1.1">
<g id="surface1">
<path style=" stroke:none;fill-rule:nonzero;fill:rgb(0%,0%,0%);fill-opacity:1;" d="M 19.085938 4.363281 C 18.871094 3.53125 18.226562 2.875 17.410156 2.65625 C 15.933594 2.25 10.003906 2.25 10.003906 2.25 C 10.003906 2.25 4.074219 2.25 2.59375 2.65625 C 1.777344 2.875 1.136719 3.53125 0.917969 4.363281 C 0.519531 5.871094 0.519531 9.015625 0.519531 9.015625 C 0.519531 9.015625 0.519531 12.15625 0.917969 13.664062 C 1.136719 14.496094 1.777344 15.125 2.59375 15.34375 C 4.074219 15.75 10.003906 15.75 10.003906 15.75 C 10.003906 15.75 15.933594 15.75 17.414062 15.34375 C 18.230469 15.125 18.871094 14.496094 19.089844 13.664062 C 19.484375 12.15625 19.484375 9.015625 19.484375 9.015625 C 19.484375 9.015625 19.484375 5.871094 19.089844 4.363281 Z M 8.0625 11.867188 L 8.0625 6.160156 L 13.015625 9.015625 Z M 8.0625 11.867188 "/>
</g>
</svg>
