                     <svg width="89" height="68" viewBox="0 0 89 68" fill="none" xmlns="http://www.w3.org/2000/svg">
<path d="M60.5661 19.1603C57.8698 13.2246 53.5029 8.203 47.9989 4.70906C51.0267 3.59351 54.2282 3.02336 57.455 3.02504C68.4362 3.02504 78.0133 9.55312 82.9554 19.1603H60.5661ZM58.603 22.1913H87.4965C82.9644 9.24812 71.2092 1.90047e-06 57.454 1.90047e-06C53.0109 -0.00142449 48.6219 0.974272 44.5978 2.85802C40.5742 0.974136 36.1855 -0.00157174 31.7427 1.90047e-06C17.9875 1.90047e-06 6.23229 9.24812 1.69922 22.1913H4.88725C9.25132 10.9541 19.6435 3.02602 31.7427 3.02602C34.9692 3.02391 38.1704 3.5941 41.1978 4.71006C34.7584 8.81121 29.8988 14.9734 27.4116 22.1913H30.5936C33.1935 15.3621 38.1626 9.6955 44.5938 6.22608C51.025 9.69557 55.9941 15.3621 58.594 22.1913" fill="white"/>
<path d="M28.5916 48.7551C31.2849 54.727 35.6671 59.7801 41.1978 63.2913C38.17 64.4066 34.9684 64.9764 31.7417 64.9743C20.7285 64.9743 11.1284 58.4092 6.2013 48.7551H28.5916ZM30.5916 45.8101H1.69922C6.23229 58.7533 17.9875 68.0004 31.7417 68.0004C36.1848 68.0018 40.5738 67.0261 44.5979 65.1423C48.6215 67.0263 53.0103 68.002 57.4531 68.0004C71.2073 68.0004 82.9634 58.7533 87.4955 45.8101H84.3084C79.9444 57.0472 69.5522 64.9753 57.4531 64.9753C54.2263 64.9773 51.0248 64.4075 47.9969 63.2923C54.4362 59.1908 59.2961 53.0288 61.7841 45.811H58.6021C56.0016 52.6397 51.0327 58.3058 44.6019 61.7753C38.171 58.3059 33.2019 52.6398 30.6017 45.811" fill="white"/>
<path d="M71.022 34.3345C71.0012 34.0121 71.0503 33.689 71.166 33.3873C71.2817 33.0857 71.4612 32.8126 71.6923 32.5868C71.9234 32.3611 72.2006 32.1879 72.5048 32.0793C72.8091 31.9707 73.1332 31.9291 73.4551 31.9574C73.7699 31.9366 74.0856 31.9843 74.3802 32.0972C74.6749 32.2101 74.9415 32.3857 75.1618 32.6116C75.382 32.8376 75.5507 33.1086 75.656 33.4061C75.7614 33.7035 75.801 34.0203 75.7721 34.3345H71.022ZM71.016 36.5675H79.2722C79.3032 36.3145 79.3392 35.7785 79.3392 35.4205C79.3392 32.3144 77.9062 29.4314 73.4101 29.4314C69.178 29.4314 67.327 32.1134 67.327 35.3535C67.327 38.4145 68.914 41.6466 73.4101 41.6466C77.4211 41.6466 78.9202 39.8355 79.2942 37.9145H75.6131C75.4279 38.3063 75.1237 38.6296 74.7439 38.8383C74.3641 39.0469 73.9281 39.1303 73.4981 39.0766C72.8381 39.0671 72.2081 38.7989 71.7439 38.3296C71.2797 37.8604 71.0183 37.2276 71.016 36.5675ZM57.9158 41.2886V35.7115C57.9158 33.5214 58.7979 32.5375 60.3159 32.5375C61.6389 32.5375 62.2329 33.3375 62.2329 34.8175V41.2886H66.024V34.1685C66.024 31.2414 64.7679 29.4314 61.8809 29.4314C61.0515 29.3937 60.23 29.6059 59.5225 30.0404C58.8151 30.4749 58.2543 31.1117 57.9128 31.8684V29.7904H54.1228V41.2906L57.9158 41.2886ZM49.5627 38.2495V32.6684H52.5628V29.7864H49.5627V27.0864H47.6457L46.0807 29.8794L43.8326 30.8844V32.6684H45.7717V36.8835C45.7717 39.7655 46.8297 41.2836 50.2017 41.2836H52.2078V38.2445L49.5627 38.2495ZM34.9065 41.2886V35.7115C34.9065 33.5214 35.7885 32.5375 37.3066 32.5375C38.6296 32.5375 39.2236 33.3375 39.2236 34.8175V41.2886H43.0156V34.1685C43.0156 31.2414 41.7596 29.4314 38.8726 29.4314C38.0432 29.394 37.2218 29.6063 36.5144 30.0407C35.807 30.4752 35.2462 31.1119 34.9045 31.8684V29.7904H31.1144V41.2906L34.9065 41.2886ZM29.1554 29.7884H25.3644V35.3685C25.3644 37.5145 24.4823 38.5425 23.0063 38.5425C21.6613 38.5425 21.0673 37.7425 21.0673 36.2425V29.7944H17.1593L17.2763 36.9135C17.2763 39.8395 18.5763 41.6506 21.4633 41.6506C22.2785 41.6913 23.0869 41.4849 23.7828 41.0585C24.4787 40.632 25.0296 40.0054 25.3634 39.2605V41.2936H29.1544L29.1554 29.7884ZM23.9983 28.4254H27.2164V26.1024H23.9983V28.4254ZM19.2153 28.4254H22.4333V26.1024H19.2153V28.4254ZM0 33.7055C0 37.9285 2.13701 41.6446 6.92009 41.6446C10.1381 41.6446 11.4832 40.1445 12.0562 38.5605V41.2866H15.2962V33.1294H7.81411V35.6095H11.6142C11.3722 37.2855 10.4901 38.6045 7.84609 38.6045C5.22405 38.6045 4.05505 36.8545 4.05505 33.7045C4.05505 30.3524 5.41906 28.7594 8.0411 28.7594C10.1351 28.7594 11.1682 29.7204 11.3412 31.0154H15.2202C15.0202 28.1154 13.0852 25.7153 8.02011 25.7153C2.31102 25.7153 0 29.3864 0 33.6995M88.4013 33.3354V29.6034H87.4753C86.739 29.544 86.0075 29.765 85.4272 30.2221C84.847 30.6792 84.4609 31.3387 84.3462 32.0684V29.7894H80.6652V41.2896H84.4552V36.4895C84.4552 34.2335 85.2272 33.3395 87.0553 33.3395L88.4013 33.3354Z" fill="white"/>
<g clip-path="url(#clip0_438_905)">
<path d="M60.5613 19.161C57.8651 13.2254 53.4982 8.20386 47.9943 4.70996C51.0221 3.59443 54.2236 3.0243 57.4503 3.02597C68.4313 3.02597 78.0083 9.55395 82.9503 19.161H60.5613ZM58.5983 22.192H87.4913C82.9593 9.24896 71.2043 0.000978463 57.4493 0.000978463C53.0063 -0.000447904 48.6173 0.975235 44.5933 2.85895C40.5697 0.975098 36.1811 -0.000595152 31.7383 0.000978463C17.9833 0.000978463 6.22831 9.24896 1.69531 22.192H4.8833C9.2473 10.955 19.6393 3.02695 31.7383 3.02695C34.9648 3.02484 38.166 3.59503 41.1933 4.71097C34.754 8.81205 29.8944 14.9741 27.4073 22.192H30.5893C33.1891 15.3628 38.1581 9.69634 44.5893 6.22696C51.0204 9.69641 55.9894 15.3628 58.5893 22.192" fill="#9D9D9D"/>
<path d="M28.5873 48.755C31.2806 54.7268 35.6627 59.7799 41.1933 63.291C38.1655 64.4063 34.964 64.9761 31.7373 64.9741C20.7243 64.9741 11.1243 58.409 6.19733 48.755H28.5873ZM30.5873 45.8101H1.69531C6.22831 58.7531 17.9833 68.0001 31.7373 68.0001C36.1804 68.0015 40.5694 67.0258 44.5933 65.1421C48.6169 67.026 53.0056 68.0017 57.4483 68.0001C71.2023 68.0001 82.9583 58.7531 87.4903 45.8101H84.3033C79.9393 57.0471 69.5473 64.975 57.4483 64.975C54.2217 64.977 51.0202 64.4072 47.9923 63.2921C54.4315 59.1906 59.2913 53.0287 61.7793 45.811H58.5973C55.9969 52.6396 51.028 58.3056 44.5973 61.7751C38.1665 58.3057 33.1976 52.6397 30.5973 45.811" fill="#9D9D9D"/>
<path d="M71.0171 34.3348C70.9962 34.0124 71.0453 33.6893 71.161 33.3877C71.2767 33.0861 71.4563 32.813 71.6873 32.5872C71.9184 32.3614 72.1956 32.1883 72.4998 32.0797C72.8041 31.971 73.1283 31.9295 73.4501 31.9578C73.7649 31.937 74.0806 31.9847 74.3752 32.0976C74.6699 32.2105 74.9365 32.386 75.1567 32.612C75.377 32.838 75.5456 33.109 75.651 33.4064C75.7564 33.7039 75.796 34.0206 75.7671 34.3348H71.0171ZM71.0111 36.5678H79.2671C79.2981 36.3148 79.3341 35.7788 79.3341 35.4208C79.3341 32.3148 77.9011 29.4318 73.4051 29.4318C69.1731 29.4318 67.3221 32.1138 67.3221 35.3538C67.3221 38.4148 68.9091 41.6468 73.4051 41.6468C77.4161 41.6468 78.9151 39.8358 79.2891 37.9148H75.6081C75.4229 38.3066 75.1187 38.6299 74.7389 38.8386C74.3591 39.0472 73.9231 39.1306 73.4931 39.0768C72.8331 39.0674 72.2032 38.7992 71.739 38.3299C71.2747 37.8607 71.0134 37.2279 71.0111 36.5678ZM57.9111 41.2888V35.7118C57.9111 33.5218 58.7931 32.5378 60.3111 32.5378C61.6341 32.5378 62.2281 33.3378 62.2281 34.8178V41.2888H66.0191V34.1688C66.0191 31.2418 64.7631 29.4318 61.8761 29.4318C61.0467 29.3942 60.2252 29.6063 59.5177 30.0408C58.8103 30.4753 58.2496 31.1121 57.9081 31.8688V29.7908H54.1181V41.2908L57.9111 41.2888ZM49.5581 38.2498V32.6688H52.5581V29.7868H49.5581V27.0868H47.6411L46.0761 29.8798L43.8281 30.8848V32.6688H45.7671V36.8838C45.7671 39.7658 46.8251 41.2838 50.1971 41.2838H52.2031V38.2448L49.5581 38.2498ZM34.9021 41.2888V35.7118C34.9021 33.5218 35.7841 32.5378 37.3021 32.5378C38.6251 32.5378 39.2191 33.3378 39.2191 34.8178V41.2888H43.0111V34.1688C43.0111 31.2418 41.7551 29.4318 38.8681 29.4318C38.0388 29.3945 37.2173 29.6067 36.5099 30.0412C35.8026 30.4756 35.2418 31.1123 34.9001 31.8688V29.7908H31.1101V41.2908L34.9021 41.2888ZM29.1511 29.7888H25.3601V35.3688C25.3601 37.5148 24.4781 38.5428 23.0021 38.5428C21.6571 38.5428 21.0631 37.7428 21.0631 36.2428V29.7948H17.1551L17.2721 36.9138C17.2721 39.8398 18.5721 41.6508 21.4591 41.6508C22.2742 41.6916 23.0827 41.4852 23.7786 41.0587C24.4745 40.6323 25.0253 40.0056 25.3591 39.2608V41.2938H29.1501L29.1511 29.7888ZM23.9941 28.4258H27.2121V26.1028H23.9941V28.4258ZM19.2111 28.4258H22.4291V26.1028H19.2111V28.4258ZM-0.00390625 33.7058C-0.00390625 37.9288 2.13308 41.6448 6.91608 41.6448C10.1341 41.6448 11.4791 40.1448 12.0521 38.5608V41.2868H15.2921V33.1298H7.81009V35.6098H11.6101C11.3681 37.2858 10.4861 38.6048 7.84207 38.6048C5.22007 38.6048 4.05109 36.8548 4.05109 33.7048C4.05109 30.3528 5.41508 28.7598 8.03708 28.7598C10.1311 28.7598 11.1641 29.7208 11.3371 31.0158H15.2161C15.0161 28.1158 13.0811 25.7158 8.01608 25.7158C2.30708 25.7158 -0.00390625 29.3868 -0.00390625 33.6998M88.3961 33.3358V29.6038H87.4701C86.7338 29.5444 86.0023 29.7654 85.4221 30.2225C84.8418 30.6796 84.4557 31.3391 84.3411 32.0688V29.7898H80.6601V41.2898H84.4501V36.4898C84.4501 34.2338 85.2221 33.3398 87.0501 33.3398L88.3961 33.3358Z" fill="#2666DF"/>
</g>
<defs>
<clipPath id="clip0_438_905">
<rect width="88.396" height="68" fill="white"/>
</clipPath>
</defs>
</svg>
