<?xml version="1.0" encoding="UTF-8"?>
<svg id="Layer_1" data-name="Layer 1" xmlns="http://www.w3.org/2000/svg" viewBox="0 0 2094.19 566.33">
  <defs>
    <style>
      .cls-1 {
        fill: #232d55;
      }
      .cls-2 {
        fill: #5d98d8;
      }
    </style>
  </defs>
  <g>
    <polygon class="cls-2" points="309.81 279.99 309.44 280.36 309.06 279.99 309.81 279.99"/>
    <g>
      <path class="cls-2" d="M308.4,32.52v168.61s-45.52-45.52-45.52-45.52V32.52s-61.91,0-61.91,0v61.18s-36.03-36.03-36.03-36.03l-43.77,43.77,36.03,36.03h-65.02s0,61.91,0,61.91h126.93s49.66,49.66,49.66,49.66H123.22s-69.03-69.01-69.03-69.01l-43.77,43.77,56.8,56.8-55.57,55.59,43.77,43.79,68.99-69.01h145.11s-49.66,49.64-49.66,49.64h-127.68s0,61.91,0,61.91h65.77s-36.23,36.23-36.23,36.23l43.77,43.79,35.47-35.47v62.87s61.91,0,61.91,0v-124.78s45.52-45.52,45.52-45.52v170.3s75.08,0,75.08,0V32.52s-75.08,0-75.08,0ZM299.73,279.99h.76s-.38.38-.38.38l-.38-.38Z"/>
      <polygon class="cls-2" points="300.48 279.99 300.11 280.36 299.73 279.99 300.48 279.99"/>
    </g>
    <polygon class="cls-2" points="509.22 279.57 759.4 529.75 653.22 529.75 495.83 372.36 495.83 529.9 423.35 529.9 423.35 32.52 495.83 32.52 495.83 186.78 649.67 32.95 755.85 32.93 509.22 279.57"/>
    <polygon class="cls-2" points="902.91 529.9 803.36 529.9 553.06 279.61 800.09 32.52 903.59 32.52 903.59 137.94 841.67 137.94 841.67 97.12 659.22 279.57 841.67 462.02 841.67 309.57 772.78 309.57 772.78 247.66 903.59 247.66 902.91 529.9"/>
  </g>
  <g>
    <path class="cls-1" d="M1110.34,250.11l-86.06-97.53v97.53s-56.77,0-56.77,0V35.11s56.77,0,56.77,0v92.41s83.65-92.41,83.65-92.41h66.43s-95.12,102.07-95.12,102.07l98.44,112.93h-67.34Z"/>
    <path class="cls-1" d="M1218.44,239.39c-16.31-8.95-28.84-21.79-37.6-38.5-8.76-16.71-13.14-36.24-13.14-58.59,0-22.35,4.43-41.77,13.29-58.28,8.86-16.51,21.39-29.24,37.6-38.2,16.2-8.96,35.28-13.44,57.22-13.44,21.94,0,41.01,4.48,57.22,13.44,16.2,8.96,28.64,21.7,37.29,38.2,8.65,16.51,12.99,35.93,12.99,58.28,0,22.35-4.33,41.87-12.99,58.59-8.66,16.71-21.09,29.54-37.29,38.5-16.21,8.96-35.28,13.44-57.22,13.44-21.94,0-41.07-4.47-57.37-13.44ZM1313.71,192.44c9.16-11.48,13.74-28.18,13.74-50.13,0-21.74-4.58-38.29-13.74-49.68-9.16-11.37-21.79-17.06-37.9-17.06-16.11,0-28.69,5.64-37.75,16.91-9.06,11.28-13.59,27.89-13.59,49.83,0,22.15,4.53,38.9,13.59,50.27,9.06,11.38,21.64,17.06,37.75,17.06,16.1,0,28.73-5.74,37.9-17.21Z"/>
    <path class="cls-1" d="M1603.45,250.11h-60.09s-27.78-71.56-27.78-71.56c-3.22-8.05-10.77-12.08-22.65-12.08h-20.53s0,83.64,0,83.64h-55.87s0-215,0-215h99.95c25.97,0,45.49,5.59,58.58,16.76,13.08,11.18,19.63,27.13,19.63,47.86,0,14.5-3.88,27.03-11.62,37.6-7.75,10.57-18.67,18.07-32.76,22.49,6.04,1.21,11.48,4.04,16.31,8.46,4.83,4.43,8.65,10.37,11.47,17.81l25.37,64.01ZM1533.7,118.61c5.43-3.73,8.15-9.51,8.15-17.37,0-8.25-2.67-14.19-8-17.81-5.34-3.62-14.14-5.43-26.42-5.43h-35.63s0,46.2,0,46.2h35.63c12.08,0,20.84-1.86,26.27-5.58Z"/>
    <path class="cls-1" d="M1632.13,35.11h56.77s0,215,0,215h-56.77s0-215,0-215Z"/>
    <path class="cls-1" d="M1727.55,35.11h153.4s0,43.49,0,43.49h-98.14s0,40.46,0,40.46h91.8s0,43.48,0,43.48h-91.8s0,44.09,0,44.09h98.14s0,43.48,0,43.48h-153.4s0-215,0-215Z"/>
    <path class="cls-1" d="M1909.94,35.11h56.77s0,169.11,0,169.11h90.89s0,45.9,0,45.9h-147.66s0-215,0-215Z"/>
  </g>
  <g>
    <path class="cls-1" d="M1155.04,406.69v107.81c-11.48,5.24-24.31,9.26-38.5,12.08-14.19,2.81-28.74,4.22-43.63,4.22-23.36,0-43.64-4.43-60.85-13.29-17.21-8.85-30.45-21.59-39.71-38.2-9.26-16.61-13.89-36.28-13.89-59.03,0-22.14,4.63-41.52,13.89-58.13,9.26-16.61,22.35-29.39,39.26-38.35,16.91-8.96,36.64-13.44,59.18-13.44,15.5,0,30.14,2.02,43.94,6.04,13.79,4.03,25.01,9.57,33.67,16.61l-17.82,40.16c-9.86-6.44-19.38-11.12-28.54-14.04-9.16-2.92-18.98-4.38-29.44-4.38-19.13,0-33.37,5.39-42.73,16.16-9.36,10.76-14.04,27.23-14.04,49.37,0,22.95,4.88,39.96,14.64,51.03,9.76,11.07,24.81,16.61,45.14,16.61,9.46,0,18.92-1.01,28.38-3.02v-39.86s-37.44,0-37.44,0v-38.35s88.48,0,88.48,0Z"/>
    <path class="cls-1" d="M1377.89,528.08h-60.09s-27.78-71.56-27.78-71.56c-3.22-8.05-10.77-12.08-22.65-12.08h-20.53s0,83.64,0,83.64h-55.87s0-215,0-215h99.95c25.97,0,45.49,5.59,58.58,16.76,13.08,11.18,19.63,27.13,19.63,47.86,0,14.5-3.88,27.03-11.62,37.6-7.75,10.57-18.67,18.07-32.76,22.49,6.04,1.21,11.48,4.04,16.31,8.46,4.83,4.43,8.65,10.37,11.47,17.81l25.37,64.01ZM1308.14,396.58c5.43-3.73,8.15-9.51,8.15-17.37,0-8.25-2.67-14.19-8-17.81-5.34-3.62-14.14-5.43-26.42-5.43h-35.63s0,46.2,0,46.2h35.63c12.08,0,20.84-1.86,26.27-5.58Z"/>
    <path class="cls-1" d="M1450.06,517.36c-16.31-8.95-28.84-21.79-37.6-38.5-8.76-16.71-13.14-36.24-13.14-58.59,0-22.35,4.43-41.77,13.29-58.28,8.86-16.51,21.39-29.24,37.6-38.2,16.2-8.96,35.28-13.44,57.22-13.44,21.94,0,41.01,4.48,57.22,13.44,16.2,8.96,28.64,21.7,37.29,38.2,8.65,16.51,12.99,35.93,12.99,58.28,0,22.35-4.33,41.87-12.99,58.59-8.66,16.71-21.09,29.54-37.29,38.5-16.21,8.96-35.28,13.44-57.22,13.44-21.94,0-41.07-4.47-57.37-13.44ZM1545.33,470.4c9.16-11.48,13.74-28.18,13.74-50.13,0-21.74-4.58-38.29-13.74-49.68-9.16-11.37-21.79-17.06-37.9-17.06-16.11,0-28.69,5.64-37.75,16.91-9.06,11.28-13.59,27.89-13.59,49.83,0,22.15,4.53,38.9,13.59,50.27,9.06,11.38,21.64,17.06,37.75,17.06,16.1,0,28.73-5.74,37.9-17.21Z"/>
    <path class="cls-1" d="M1671.4,507.09c-16.11-15.8-24.16-39-24.16-69.6v-124.42s55.26,0,55.26,0v126.53c0,15.51,3.47,27.39,10.42,35.64,6.94,8.26,16.86,12.38,29.74,12.38,12.68,0,22.45-4.18,29.29-12.53,6.84-8.35,10.27-20.18,10.27-35.49v-126.53s55.87,0,55.87,0v124.42c0,30.2-8.21,53.29-24.62,69.3-16.41,16-40.01,24.01-70.81,24.01-31.4,0-55.16-7.9-71.26-23.7Z"/>
    <path class="cls-1" d="M1875.24,313.08h102.37c24.56,0,43.58,5.89,57.07,17.67,13.48,11.78,20.23,27.74,20.23,47.87,0,19.93-6.85,35.83-20.54,47.71-13.69,11.89-32.61,17.82-56.77,17.82h-45.6s0,83.94,0,83.94h-56.77s0-215,0-215ZM1970.05,401.86c21.33,0,32.01-7.55,32.01-22.65,0-7.65-2.57-13.44-7.7-17.36-5.14-3.93-13.24-5.89-24.31-5.89h-38.05s0,45.9,0,45.9h38.05Z"/>
  </g>
</svg>